<svg version="1.2" xmlns="http://www.w3.org/2000/svg" viewBox="0 0 1500 204" width="1500" height="204">
	<title>logo-no-background-svg</title>
	<style>
		tspan { white-space:pre } 
		.s0 { fill: #ffffff } 
		.t1 { font-size: 52px;fill: #ffffff;font-weight: 400;font-family: "Impact", "Impact" } 
	</style>
	<g id="Layer">
		<g id="Layer">
			<g id="tight-bounds">
				<g id="Layer">
					<g id="Layer">
						<g id="Layer">
							<g id="Layer">
								<g id="Layer">
									<g id="textblocktransform">
										<g id="textblock">
											<g id="Layer">
												<g id="Layer">
													<g id="Layer">
														<g id="Layer">
															<g id="Layer">
															</g>
															<g id="Layer">
															</g>
														</g>
													</g>
													<g id="Layer">
														<g id="Layer">
															<g id="Layer">
																<g id="Layer">
																</g>
															</g>
															<g id="Layer">
															</g>
														</g>
													</g>
													<g id="text-0">
														<g id="Layer">
															<g id="Layer">
																<g id="Layer">
																	<path id="Layer" fill-rule="evenodd" class="s0" d="m122.7 112.6q0 6.6-1.7 11.9-1.6 5.2-4.3 9.2-2.8 4-6.5 6.8-3.7 2.9-7.6 4.7-3.9 1.7-8 2.6-4.1 0.9-7.7 0.9h-85.8v-22.2h85.8q6.5 0 10-3.8 3.6-3.8 3.6-10.1 0-3-1-5.6-0.9-2.6-2.7-4.4-1.7-1.9-4.3-2.9-2.5-1.1-5.6-1.1h-51.2q-5.4 0-11.6-1.9-6.3-1.9-11.6-6.2-5.4-4.3-8.9-11.2-3.6-6.9-3.6-16.9 0-10 3.6-16.9 3.5-6.8 8.9-11.1 5.3-4.4 11.6-6.3 6.2-1.9 11.6-1.9h75.8v22.2h-75.8q-6.3 0-9.9 3.9-3.5 3.8-3.5 10.1 0 6.4 3.5 10.1 3.6 3.8 9.9 3.8h51.4q3.6 0 7.6 0.9 4 0.9 8 2.8 4 1.9 7.6 4.8 3.6 2.8 6.4 6.8 2.8 4 4.4 9.2 1.6 5.3 1.6 11.8zm115.6-25.7q0 4.6-1.6 10-1.6 5.3-5.3 9.9-3.6 4.5-9.5 7.6-5.8 3.1-14.2 3.1h-40.2v-21.1h40.2q4.5 0 7-2.8 2.5-2.8 2.5-6.8 0-4.4-2.8-6.9-2.8-2.5-6.7-2.5h-40.2q-4.5 0-7 2.8-2.5 2.8-2.5 6.9v31q0 4.4 2.8 6.9 2.7 2.5 6.9 2.5h40v21.2h-40.2q-4.6 0-10-1.6-5.3-1.7-9.9-5.3-4.6-3.6-7.7-9.5-3.1-5.8-3.1-14.2v-31.2q0-4.6 1.7-9.9 1.6-5.4 5.2-9.9 3.7-4.6 9.5-7.7 5.9-3 14.3-3h40.2q4.6 0 9.9 1.6 5.4 1.6 10 5.2 4.6 3.6 7.6 9.5 3.1 5.9 3.1 14.2zm104.7 39.6v22.2h-60.4q-4.6 0-10.1-1.6-5.5-1.7-10.2-5.4-4.6-3.7-7.8-9.7-3.1-5.9-3.1-14.5v-30.1q0-3.1 0.7-6.6 0.7-3.5 2.3-7 1.5-3.5 4-6.6 2.4-3.2 5.9-5.6 3.5-2.3 8-3.8 4.5-1.4 10.3-1.4h60.4v22.2h-60.4q-4.4 0-6.7 2.2-2.2 2.2-2.2 6.8v29.9q0 4.3 2.3 6.6 2.3 2.4 6.7 2.4zm119.6-70.1v81.1q0 2.4-0.8 4.4-0.9 2.1-2.4 3.5-1.5 1.5-3.5 2.4-2 0.9-4.3 0.9h-50.3q-4.2 0-8.9-1-4.6-0.9-9.1-3-4.6-2.1-8.8-5.3-4.3-3.2-7.4-7.8-3.2-4.6-5.1-10.5-2-6-2-13.5v-51.2h22.3v51.2q0 4.3 1.5 7.8 1.5 3.5 4.1 5.9 2.6 2.5 6 3.8 3.5 1.4 7.5 1.4h39v-70.1zm101.8 0v22.2h-50q-4.6 0-6.9 2.2-2.3 2.3-2.3 6.6v61.3h-22.3v-61.3q0-5.7 1.5-10.2 1.4-4.5 3.9-8 2.4-3.5 5.6-5.9 3.2-2.4 6.6-4 3.5-1.5 7.1-2.2 3.5-0.7 6.6-0.7zm113.9 30.5q0 4.6-1.6 10-1.7 5.3-5.3 9.9-3.6 4.5-9.5 7.6-5.9 3.1-14.3 3.1h-40.1v-21.1h40.1q4.5 0 7-2.8 2.5-2.8 2.5-6.8 0-4.4-2.7-6.9-2.9-2.5-6.8-2.5h-40.1q-4.6 0-7.1 2.8-2.4 2.8-2.4 6.9v31q0 4.4 2.7 6.9 2.8 2.5 6.9 2.5h40v21.2h-40.1q-4.7 0-10-1.6-5.4-1.7-10-5.3-4.5-3.6-7.6-9.5-3.1-5.8-3.1-14.2v-31.2q0-4.6 1.6-9.9 1.7-5.4 5.3-9.9 3.6-4.6 9.5-7.7 5.9-3 14.3-3h40.1q4.6 0 10 1.6 5.3 1.6 9.9 5.2 4.6 3.6 7.7 9.5 3.1 5.9 3.1 14.2zm135.4 25.7q0 6.6-1.7 11.9-1.6 5.2-4.3 9.2-2.8 4-6.5 6.8-3.6 2.9-7.6 4.7-3.9 1.7-8 2.6-4.1 0.9-7.7 0.9h-85.8v-22.2h85.8q6.5 0 10-3.8 3.6-3.8 3.6-10.1 0-3-1-5.6-0.9-2.6-2.7-4.4-1.7-1.9-4.3-2.9-2.5-1.1-5.6-1.1h-51.2q-5.4 0-11.6-1.9-6.3-1.9-11.6-6.2-5.4-4.3-8.9-11.2-3.6-6.9-3.6-16.9 0-10 3.6-16.9 3.5-6.8 8.9-11.1 5.3-4.4 11.6-6.3 6.2-1.9 11.6-1.9h75.8v22.2h-75.8q-6.3 0-9.8 3.9-3.6 3.8-3.6 10.1 0 6.4 3.6 10.1 3.5 3.8 9.8 3.8h51.4q3.6 0 7.6 0.9 4 0.9 8 2.8 4 1.9 7.6 4.8 3.6 2.8 6.4 6.8 2.8 4 4.4 9.2 1.6 5.3 1.6 11.8zm118.1-25.2v30.1q0 5.7-1.5 10.3-1.4 4.6-3.8 8-2.4 3.5-5.6 5.9-3.1 2.5-6.6 4-3.5 1.5-7 2.2-3.5 0.8-6.7 0.8h-40.1v-22.2h40.1q4.5 0 6.7-2.4 2.3-2.3 2.3-6.6v-29.9q0-4.6-2.3-6.8-2.3-2.2-6.7-2.2h-39.9q-4.6 0-6.9 2.2-2.3 2.3-2.3 6.6v90.1h-22.3v-90.1q0-5.7 1.5-10.2 1.4-4.5 3.9-8 2.4-3.5 5.6-5.9 3.1-2.4 6.6-4 3.5-1.5 7.1-2.2 3.5-0.7 6.6-0.7h40.1q5.8 0 10.3 1.4 4.5 1.5 8 3.8 3.5 2.4 5.9 5.6 2.5 3.1 4 6.6 1.5 3.5 2.3 7 0.7 3.5 0.7 6.6zm119.7 0v30.1q0 5.7-1.4 10.3-1.5 4.6-3.9 8-2.4 3.5-5.6 5.9-3.1 2.5-6.6 4-3.5 1.5-7 2.2-3.6 0.8-6.8 0.8h-40.1q-4.6 0-10.1-1.6-5.5-1.7-10.2-5.4-4.6-3.7-7.7-9.7-3.2-5.9-3.2-14.5v-30.1q0-8.5 3.2-14.4 3.1-6 7.7-9.7 4.7-3.7 10.2-5.3 5.5-1.6 10.1-1.6h40.1q8.6 0 14.6 3 6 3.1 9.7 7.8 3.7 4.6 5.3 10.1 1.7 5.4 1.7 10.1zm-22.2 30.1v-29.9q0-4.6-2.4-6.8-2.3-2.2-6.7-2.2h-39.9q-4.5 0-6.8 2.2-2.3 2.3-2.3 6.6v30.1q0 4.3 2.3 6.6 2.3 2.4 6.8 2.4h39.9q4.6 0 6.8-2.4 2.3-2.3 2.3-6.6zm124.9-61.1v22.2h-38.9v70.1h-22.5v-70.1h-29v-22.2h29v-30.2h22.5v30.2z"/>
																</g>
															</g>
															<g id="Layer">
																<g id="cg-0">
																	<path id="Layer" fill-rule="evenodd" class="s0" d="m1289 17.7c21 0 38 17 38 37.9 0 20.9-17 37.9-38 37.9-21 0-38-17-38-37.9 0-20.9 17-37.9 38-37.9zm0 20.2c-9.8 0-17.7 7.9-17.7 17.7 0 9.8 7.9 17.6 17.7 17.6 9.8 0 17.7-7.8 17.7-17.6 0-9.8-7.9-17.7-17.7-17.7zm122.3-37.9c17.7 0 32.1 14.4 32.1 32 0 17.7-14.4 32.1-32.1 32.1-17.7 0-32.1-14.4-32.1-32.1 0-17.6 14.4-32 32.1-32zm0 20.3c-6.6 0-11.8 5.2-11.8 11.7 0 6.6 5.2 11.8 11.8 11.8 6.6 0 11.8-5.2 11.8-11.8 0-6.5-5.2-11.7-11.8-11.7zm86.9 118.7c0 5.5-4.6 10.1-10.2 10.1h-141c4 11.8 6.9 25.8 8.2 43.5 0.7 5.9-3.6 10.8-9.2 11.1q-0.4 0-0.9 0c-5.3 0-9.9-4.2-10.2-9.5-3.9-49.7-19.7-74.8-46.2-74.8-26.6 0-42 25.1-46.3 74.8-0.6 5.6-5.5 9.8-11.1 9.2-5.6-0.7-9.5-5.6-9.2-11.1 1.6-17.4 4.3-31.7 8.2-43.5h-17.7c-5.6 0-10.2-4.6-10.2-10.2 0-5.5 4.6-10.1 10.2-10.1h26.9c13.4-23.2 32.8-29.4 49.5-29.4 16.7 0 35.7 6.2 49.5 29.4h19.4c7.8-51.3 36.3-59.2 53.4-59.2 17 0 45.9 7.9 53.4 59.2h24c5.5 0 9.5 4.9 9.5 10.5zm-54.1-10.5c-4.6-25.8-15.4-38.9-32.8-38.9-17.4 0-28.2 13.1-32.8 38.9z"/>
																</g>
															</g>
														</g>
													</g>
												</g>
											</g>
										</g>
									</g>
								</g>
							</g>
							<g id="Layer">
							</g>
						</g>
					</g>
				</g>
			</g>
		</g>
		<text id="Admin" style="transform: matrix(1,0,0,1,1078,193.875)" >
			<tspan x="0" y="0" class="t1">A</tspan><tspan  y="0" class="t1">d</tspan><tspan  y="0" class="t1">m</tspan><tspan  y="0" class="t1">i</tspan><tspan  y="0" class="t1">n
</tspan>
		</text>
	</g>
</svg>