<svg xmlns="http://www.w3.org/2000/svg" version="1.1" xmlns:xlink="http://www.w3.org/1999/xlink" xmlns:svgjs="http://svgjs.dev/svgjs" width="1500" height="204" viewBox="0 0 1500 204"><g transform="matrix(1,0,0,1,-0.9090909090909918,-0.1386981264744236)"><svg viewBox="0 0 396 54" data-background-color="#ea3c12" preserveAspectRatio="xMidYMid meet" height="204" width="1500" xmlns="http://www.w3.org/2000/svg" xmlns:xlink="http://www.w3.org/1999/xlink"><g id="tight-bounds" transform="matrix(1,0,0,1,0.2400000000000091,0.036714209949110455)"><svg viewBox="0 0 395.52 53.92657158010176" height="53.92657158010176" width="395.52"><g><svg viewBox="0 0 513.3906150305978 69.9974609375" height="53.92657158010176" width="395.52"><g><svg viewBox="0 0 513.3906150305978 69.9974609375" height="69.9974609375" width="513.3906150305978"><g id="textblocktransform"><svg viewBox="0 0 513.3906150305978 69.9974609375" height="69.9974609375" width="513.3906150305978" id="textblock"><g><svg viewBox="0 0 513.3906150305978 69.9974609375" height="69.9974609375" width="513.3906150305978"><g><svg><g></g><g></g></svg></g><g><svg><g><svg></svg></g><g></g></svg></g><g id="text-0"><svg viewBox="0 0 513.3906150305978 69.9974609375" height="69.9974609375" width="513.3906150305978"><g transform="matrix(1,0,0,1,0,9.002386255100149)"><svg width="395.52" viewBox="2.34 -35.01 329.08000000000004 43.26" height="51.9926884272997" data-palette-color="#ffffff"><path d="M37.33-10.3L37.33-10.3Q37.33-8.42 36.85-6.92 36.38-5.42 35.6-4.27 34.81-3.13 33.76-2.32 32.71-1.51 31.59-1 30.47-0.49 29.31-0.24 28.15 0 27.12 0L27.12 0 2.64 0 2.64-6.35 27.12-6.35Q28.96-6.35 29.97-7.42 30.98-8.5 30.98-10.3L30.98-10.3Q30.98-11.18 30.71-11.91 30.44-12.65 29.94-13.18 29.44-13.72 28.72-14.01 28-14.31 27.12-14.31L27.12-14.31 12.52-14.31Q10.99-14.31 9.2-14.86 7.42-15.41 5.9-16.63 4.37-17.85 3.36-19.82 2.34-21.8 2.34-24.66L2.34-24.66Q2.34-27.51 3.36-29.48 4.37-31.45 5.9-32.68 7.42-33.91 9.2-34.46 10.99-35.01 12.52-35.01L12.52-35.01 34.13-35.01 34.13-28.66 12.52-28.66Q10.72-28.66 9.7-27.56 8.69-26.46 8.69-24.66L8.69-24.66Q8.69-22.83 9.7-21.77 10.72-20.7 12.52-20.7L12.52-20.7 27.12-20.7 27.17-20.7Q28.2-20.68 29.35-20.42 30.49-20.17 31.63-19.63 32.76-19.09 33.79-18.27 34.81-17.46 35.61-16.31 36.4-15.16 36.87-13.67 37.33-12.18 37.33-10.3ZM70.29-17.65L70.29-17.65Q70.29-16.33 69.82-14.81 69.36-13.28 68.32-11.98 67.28-10.67 65.61-9.79 63.94-8.91 61.55-8.91L61.55-8.91 50.1-8.91 50.1-14.94 61.55-14.94Q62.84-14.94 63.55-15.73 64.26-16.53 64.26-17.7L64.26-17.7Q64.26-18.95 63.46-19.65 62.67-20.36 61.55-20.36L61.55-20.36 50.1-20.36Q48.8-20.36 48.09-19.57 47.39-18.77 47.39-17.6L47.39-17.6 47.39-8.74Q47.39-7.47 48.18-6.76 48.97-6.05 50.14-6.05L50.14-6.05 61.55-6.05 61.55 0 50.1 0Q48.78 0 47.25-0.46 45.73-0.93 44.42-1.97 43.11-3 42.23-4.68 41.35-6.35 41.35-8.74L41.35-8.74 41.35-17.65Q41.35-18.97 41.82-20.5 42.28-22.02 43.32-23.33 44.36-24.63 46.03-25.51 47.7-26.39 50.1-26.39L50.1-26.39 61.55-26.39Q62.86-26.39 64.39-25.93 65.92-25.46 67.22-24.43 68.53-23.39 69.41-21.72 70.29-20.04 70.29-17.65ZM100.12-6.35L100.12 0 82.91 0Q81.59 0 80.02-0.46 78.46-0.93 77.13-1.99 75.8-3.05 74.91-4.75 74.02-6.45 74.02-8.91L74.02-8.91 74.02-17.5Q74.02-18.41 74.23-19.41 74.43-20.41 74.87-21.4 75.31-22.39 76.01-23.29 76.7-24.19 77.69-24.88 78.68-25.56 79.98-25.98 81.27-26.39 82.91-26.39L82.91-26.39 100.12-26.39 100.12-20.04 82.91-20.04Q81.66-20.04 81.01-19.41 80.37-18.77 80.37-17.46L80.37-17.46 80.37-8.91Q80.37-7.67 81.03-7.01 81.68-6.35 82.95-6.35L82.95-6.35 100.12-6.35ZM134.22-26.39L134.22-3.2Q134.22-2.51 133.98-1.93 133.73-1.34 133.31-0.92 132.88-0.49 132.3-0.24 131.73 0 131.07 0L131.07 0 116.72 0Q115.54 0 114.21-0.27 112.88-0.54 111.59-1.14 110.3-1.73 109.09-2.65 107.88-3.56 106.97-4.87 106.07-6.18 105.52-7.89 104.97-9.59 104.97-11.74L104.97-11.74 104.97-26.39 111.32-26.39 111.32-11.74Q111.32-10.5 111.75-9.51 112.18-8.52 112.91-7.81 113.64-7.1 114.63-6.73 115.62-6.35 116.76-6.35L116.76-6.35 127.87-6.35 127.87-26.39 134.22-26.39ZM163.27-26.39L163.27-20.04 148.99-20.04Q147.7-20.04 147.04-19.4 146.38-18.75 146.38-17.5L146.38-17.5 146.38 0 140.03 0 140.03-17.5Q140.03-19.14 140.44-20.43 140.86-21.73 141.55-22.72 142.25-23.71 143.15-24.4 144.06-25.1 145.05-25.54 146.03-25.98 147.05-26.18 148.06-26.39 148.94-26.39L148.94-26.39 163.27-26.39ZM195.74-17.65L195.74-17.65Q195.74-16.33 195.28-14.81 194.81-13.28 193.77-11.98 192.74-10.67 191.06-9.79 189.39-8.91 187-8.91L187-8.91 175.55-8.91 175.55-14.94 187-14.94Q188.29-14.94 189-15.73 189.71-16.53 189.71-17.7L189.71-17.7Q189.71-18.95 188.92-19.65 188.12-20.36 187-20.36L187-20.36 175.55-20.36Q174.26-20.36 173.55-19.57 172.84-18.77 172.84-17.6L172.84-17.6 172.84-8.74Q172.84-7.47 173.63-6.76 174.43-6.05 175.6-6.05L175.6-6.05 187-6.05 187 0 175.55 0Q174.23 0 172.7-0.46 171.18-0.93 169.87-1.97 168.57-3 167.69-4.68 166.81-6.35 166.81-8.74L166.81-8.74 166.81-17.65Q166.81-18.97 167.27-20.5 167.74-22.02 168.77-23.33 169.81-24.63 171.48-25.51 173.16-26.39 175.55-26.39L175.55-26.39 187-26.39Q188.32-26.39 189.84-25.93 191.37-25.46 192.68-24.43 193.98-23.39 194.86-21.72 195.74-20.04 195.74-17.65ZM234.36-10.3L234.36-10.3Q234.36-8.42 233.88-6.92 233.41-5.42 232.63-4.27 231.85-3.13 230.8-2.32 229.75-1.51 228.62-1 227.5-0.49 226.34-0.24 225.18 0 224.15 0L224.15 0 199.67 0 199.67-6.35 224.15-6.35Q225.99-6.35 227-7.42 228.01-8.5 228.01-10.3L228.01-10.3Q228.01-11.18 227.74-11.91 227.48-12.65 226.97-13.18 226.47-13.72 225.75-14.01 225.03-14.31 224.15-14.31L224.15-14.31 209.56-14.31Q208.02-14.31 206.24-14.86 204.45-15.41 202.93-16.63 201.4-17.85 200.39-19.82 199.37-21.8 199.37-24.66L199.37-24.66Q199.37-27.51 200.39-29.48 201.4-31.45 202.93-32.68 204.45-33.91 206.24-34.46 208.02-35.01 209.56-35.01L209.56-35.01 231.16-35.01 231.16-28.66 209.56-28.66Q207.75-28.66 206.74-27.56 205.72-26.46 205.72-24.66L205.72-24.66Q205.72-22.83 206.74-21.77 207.75-20.7 209.56-20.7L209.56-20.7 224.15-20.7 224.2-20.7Q225.23-20.68 226.38-20.42 227.52-20.17 228.66-19.63 229.79-19.09 230.82-18.27 231.85-17.46 232.64-16.31 233.43-15.16 233.9-13.67 234.36-12.18 234.36-10.3ZM268.02-17.5L268.02-8.91Q268.02-7.28 267.61-5.97 267.19-4.66 266.51-3.67 265.83-2.69 264.92-1.99 264.02-1.29 263.03-0.85 262.04-0.42 261.04-0.21 260.04 0 259.14 0L259.14 0 247.69 0 247.69-6.35 259.14-6.35Q260.41-6.35 261.04-7.01 261.68-7.67 261.68-8.91L261.68-8.91 261.68-17.46Q261.68-18.77 261.03-19.41 260.38-20.04 259.14-20.04L259.14-20.04 247.74-20.04Q246.44-20.04 245.78-19.4 245.12-18.75 245.12-17.5L245.12-17.5 245.12 8.25 238.78 8.25 238.78-17.5Q238.78-19.14 239.19-20.43 239.61-21.73 240.3-22.72 241-23.71 241.9-24.4 242.8-25.1 243.79-25.54 244.78-25.98 245.8-26.18 246.81-26.39 247.69-26.39L247.69-26.39 259.14-26.39Q260.77-26.39 262.07-25.98 263.36-25.56 264.35-24.88 265.34-24.19 266.03-23.29 266.73-22.39 267.17-21.4 267.61-20.41 267.82-19.41 268.02-18.41 268.02-17.5L268.02-17.5ZM302.15-17.5L302.15-8.91Q302.15-7.28 301.74-5.97 301.32-4.66 300.64-3.67 299.96-2.69 299.05-1.99 298.15-1.29 297.16-0.85 296.17-0.42 295.16-0.21 294.15 0 293.24 0L293.24 0 281.79 0Q280.47 0 278.91-0.46 277.35-0.93 276.02-1.99 274.69-3.05 273.8-4.75 272.9-6.45 272.9-8.91L272.9-8.91 272.9-17.5Q272.9-19.95 273.8-21.64 274.69-23.34 276.02-24.4 277.35-25.46 278.91-25.93 280.47-26.39 281.79-26.39L281.79-26.39 293.24-26.39Q295.68-26.39 297.39-25.51 299.1-24.63 300.15-23.3 301.2-21.97 301.68-20.41 302.15-18.85 302.15-17.5L302.15-17.5ZM295.81-8.91L295.81-17.46Q295.81-18.77 295.15-19.41 294.49-20.04 293.24-20.04L293.24-20.04 281.84-20.04Q280.57-20.04 279.91-19.4 279.25-18.75 279.25-17.5L279.25-17.5 279.25-8.91Q279.25-7.67 279.91-7.01 280.57-6.35 281.84-6.35L281.84-6.35 293.24-6.35Q294.54-6.35 295.17-7.01 295.81-7.67 295.81-8.91L295.81-8.91ZM331.42-26.39L331.42-20.04 320.34-20.04 320.34 0 313.92 0 313.92-20.04 305.67-20.04 305.67-26.39 313.92-26.39 313.92-35.01 320.34-35.01 320.34-26.39 331.42-26.39Z" opacity="1" transform="matrix(1,0,0,1,0,0)" fill="#ffffff" class="wordmark-text-0" data-fill-palette-color="primary"></path></svg></g><g><svg xmlns="http://www.w3.org/2000/svg" xmlns:xlink="http://www.w3.org/1999/xlink" version="1.1" x="412.04597656249996" y="0" viewBox="4.800000000000001 18.9 90.2 62.30000000000002" enable-background="new 0 0 100 100" xml:space="preserve" height="69.9974609375" width="101.34463846809787" class="icon-cg-0" data-fill-palette-color="accent" id="cg-0"><path d="M19.6 35.9c0 6.4 5.2 11.6 11.6 11.6 6.4 0 11.6-5.2 11.6-11.6 0-6.4-5.2-11.6-11.6-11.6C24.8 24.3 19.6 29.5 19.6 35.9zM36.6 35.9c0 3-2.4 5.4-5.4 5.4-3 0-5.4-2.4-5.4-5.4 0-3 2.4-5.4 5.4-5.4C34.2 30.5 36.6 32.9 36.6 35.9zM58.7 28.7c0 5.4 4.4 9.8 9.8 9.8 5.4 0 9.8-4.4 9.8-9.8 0-5.4-4.4-9.8-9.8-9.8C63.1 18.9 58.7 23.3 58.7 28.7zM72.1 28.7c0 2-1.6 3.6-3.6 3.6s-3.6-1.6-3.6-3.6 1.6-3.6 3.6-3.6S72.1 26.7 72.1 28.7zM92.1 58.2h-7.3c-2.3-15.7-11.1-18.1-16.3-18.1s-13.9 2.4-16.3 18.1h-5.9c-4.2-7.1-10-9-15.1-9s-11 1.9-15.1 9H7.9c-1.7 0-3.1 1.4-3.1 3.1s1.4 3.1 3.1 3.1h5.4c-1.2 3.6-2 8-2.5 13.3-0.1 1.7 1.1 3.2 2.8 3.4 1.7 0.2 3.2-1.1 3.4-2.8 1.3-15.2 6-22.9 14.1-22.9 8.1 0 12.9 7.7 14.1 22.9 0.1 1.6 1.5 2.9 3.1 2.9 0.1 0 0.2 0 0.3 0 1.7-0.1 3-1.6 2.8-3.4-0.4-5.4-1.3-9.7-2.5-13.3h43c1.7 0 3.1-1.4 3.1-3.1S93.8 58.2 92.1 58.2zM58.5 58.2c1.4-7.9 4.7-11.9 10-11.9 5.3 0 8.6 4 10 11.9H58.5z" fill="#ffffff" data-fill-palette-color="accent"></path></svg></g></svg></g></svg></g></svg></g></svg></g><g></g></svg></g><defs></defs></svg><rect width="395.52" height="53.92657158010176" fill="none" stroke="none" visibility="hidden"></rect></g></svg></g></svg>